<?xml version="1.0" encoding="utf-8"?>
<!-- Generator: Adobe Illustrator 17.1.0, SVG Export Plug-In . SVG Version: 6.00 Build 0)  -->
<!DOCTYPE svg PUBLIC "-//W3C//DTD SVG 1.1//EN" "http://www.w3.org/Graphics/SVG/1.1/DTD/svg11.dtd">
<svg version="1.1" id="Layer_1" xmlns="http://www.w3.org/2000/svg" xmlns:xlink="http://www.w3.org/1999/xlink" x="0px" y="0px"
	 viewBox="0 0 1192 841.9" enable-background="new 0 0 1192 841.9" xml:space="preserve">
<title>splash</title>
<g>
	<path fill="#DCDFE2" d="M721,791.8c-2.5-13.1-14.2-121.1-14.2-121.1h-222c0,0-11.7,108-14.2,121.1c-5.7,30.5-16.3,34-16.3,34h282.2
		C737.3,825.4,726.7,822.3,721,791.8L721,791.8z"/>
	<path fill="#D1D6DA" d="M411.5,818.7h371.8v18.1H411.5L411.5,818.7L411.5,818.7z M707.9,677.4H484.1l-4.2,36.5h232.3L707.9,677.4z"
		/>
	<path fill="#DCDFE2" d="M64.9,586.4v72.9c0,23,18.8,41.8,41.8,41.8H1085c23,0,41.8-18.8,41.8-41.8v-72.6H64.9V586.4z"/>
	<path fill="#313742" d="M1085.3,2.6H106.7c-23,0-41.8,18.8-41.8,41.8v561.9h1062.2V44.3C1127.1,21.3,1108.4,2.6,1085.3,2.6z"/>
	<circle fill="#464B54" cx="596" cy="26.3" r="9.9"/>
	<path fill="#F1F2F2" d="M110.9,47.2h970.2v510.2H110.9V47.2z"/>
	<path fill="#FFFFFF" d="M110.9,89.7h970.2v467.7H110.9V89.7z"/>
	<path fill="#F1F2F2" d="M110.9,47.2h970.2v42.5H110.9V47.2z"/>
</g>
<path fill="#F65A5B" d="M943.7,317.7v16.6c0,1.1,0.7,1.8,1.8,1.8h62c1.1,0,1.8-0.7,1.8-1.8v-16.6c0-1.1-0.7-1.8-1.8-1.8h-62
	C944.4,315.9,943.7,316.6,943.7,317.7"/>
<g enable-background="new    ">
	<path fill="#939598" d="M169,284.5h15c5.7,0,10.1,1.3,13.1,3.9c3,2.6,4.4,6.4,4.4,11.5c0,5.1-1.5,8.9-4.4,11.5
		c-3,2.6-7.3,3.9-13.1,3.9H176v20.7h-7V284.5z M176,290.2v19.3h8.1c3.2,0,5.7-0.9,7.5-2.6c1.8-1.7,2.7-4.1,2.7-7.1
		c0-3.1-0.9-5.4-2.7-7.1c-1.8-1.7-4.3-2.5-7.6-2.5H176z"/>
	<path fill="#939598" d="M244.6,305.3c-1.4-1.1-2.7-1.8-4.1-2.3c-1.4-0.5-2.9-0.7-4.6-0.7c-4,0-7,1.2-9.1,3.7
		c-2.1,2.5-3.1,6.1-3.1,10.8v19.2h-6.4v-38.6h6.4v7.6c1.1-2.7,2.7-4.8,4.9-6.3c2.2-1.5,4.8-2.2,7.8-2.2c1.6,0,3,0.2,4.4,0.6
		c1.4,0.4,2.7,1,3.9,1.8V305.3z"/>
	<path fill="#939598" d="M258.2,297.5h16.2V331H287v4.9h-31.5V331h12.6v-28.6h-9.9V297.5z M268.1,282.5h6.3v8h-6.3V282.5z"/>
	<path fill="#939598" d="M326,312v23.9h-6.4V312c0-3.5-0.6-6-1.8-7.7c-1.2-1.6-3.1-2.4-5.7-2.4c-3,0-5.2,1.1-6.8,3.2
		c-1.6,2.1-2.4,5.1-2.4,9.1v21.8h-6.3v-38.6h6.3v5.8c1.1-2.2,2.7-3.9,4.6-5s4.2-1.7,6.9-1.7c3.9,0,6.9,1.3,8.8,3.9
		C325,302.8,326,306.8,326,312z"/>
	<path fill="#939598" d="M353.5,286.4v11h14.4v4.9h-14.4v21c0,2.9,0.5,4.8,1.6,6c1.1,1.1,3,1.7,5.7,1.7h7.1v5.1h-7.8
		c-4.8,0-8.1-1-10.1-2.9c-2-1.9-2.9-5.2-2.9-9.9v-21h-10.3v-4.9h10.3v-11H353.5z"/>
</g>
<g enable-background="new    ">
	<path fill="#939598" d="M404.2,278.9c-3.1,5.2-5.3,10.5-6.8,15.7c-1.5,5.2-2.3,10.5-2.3,15.7c0,5.3,0.8,10.5,2.3,15.7
		c1.5,5.2,3.8,10.5,6.8,15.8h-5.5c-3.5-5.5-6.1-10.8-7.8-16c-1.7-5.2-2.6-10.3-2.6-15.5c0-5.1,0.9-10.3,2.6-15.5
		c1.7-5.2,4.3-10.5,7.8-15.9H404.2z"/>
</g>
<g enable-background="new    ">
	<path fill="#EF9354" d="M427.8,282.3h8.7v7.1l-6.8,13.2h-5.3l3.4-13.2V282.3z M443.7,282.3h8.7v7.1l-6.8,13.2h-5.3l3.4-13.2V282.3z
		"/>
	<path fill="#EF9354" d="M464.4,284.5h7v19.7h19.1v-19.7h7v51.5h-7V310h-19.1v25.9h-7V284.5z"/>
	<path fill="#EF9354" d="M540.8,313.4v3.1h-27.5v0.2c-0.2,5.3,0.8,9,3,11.3c2.2,2.3,5.3,3.4,9.3,3.4c2,0,4.1-0.3,6.3-1
		c2.2-0.6,4.6-1.6,7.1-2.9v6.3c-2.4,1-4.7,1.7-7,2.2c-2.2,0.5-4.4,0.7-6.5,0.7c-6,0-10.7-1.8-14.1-5.4s-5.1-8.6-5.1-14.9
		c0-6.2,1.7-11.1,5-14.8s7.7-5.5,13.2-5.5c4.9,0,8.8,1.7,11.6,5C539.1,304.7,540.6,308.7,540.8,313.4z M534.5,311.6
		c-0.3-2.7-1.2-5-2.9-6.9c-1.7-1.9-4.1-2.9-7.2-2.9c-3.1,0-5.6,1-7.5,3c-2,2-3.1,4.3-3.2,6.8L534.5,311.6z"/>
	<path fill="#EF9354" d="M569.5,322c0,2.9,0.5,5,1.6,6.4c1,1.4,2.6,2.2,4.6,2.2h7.4v5.3h-8c-3.8,0-6.7-1.2-8.8-3.6
		c-2.1-2.4-3.1-5.9-3.1-10.3V287H553v-5h16.5V322z"/>
	<path fill="#EF9354" d="M612,322c0,2.9,0.5,5,1.6,6.4c1,1.4,2.6,2.2,4.6,2.2h7.4v5.3h-8c-3.8,0-6.7-1.2-8.8-3.6
		c-2.1-2.4-3.1-5.9-3.1-10.3V287h-10.2v-5H612V322z"/>
	<path fill="#EF9354" d="M651,296.4c5.4,0,9.5,1.7,12.3,5.2c2.8,3.5,4.3,8.5,4.3,15.1c0,6.6-1.4,11.6-4.2,15.1
		c-2.8,3.5-6.9,5.2-12.3,5.2c-5.4,0-9.4-1.7-12.3-5.2c-2.8-3.5-4.2-8.5-4.2-15.1c0-6.6,1.4-11.6,4.2-15.1
		C641.5,298.1,645.6,296.4,651,296.4z M651,301.8c-3.2,0-5.7,1.3-7.3,3.8c-1.7,2.5-2.5,6.2-2.5,11.1c0,4.9,0.8,8.6,2.5,11.1
		c1.7,2.5,4.1,3.8,7.3,3.8c3.2,0,5.7-1.3,7.3-3.8c1.7-2.5,2.5-6.2,2.5-11.1c0-4.9-0.8-8.6-2.5-11.1C656.7,303,654.2,301.8,651,301.8
		z"/>
	<path fill="#EF9354" d="M687.5,323.5h10.8v9.1l-7.7,14.9l-6.9,0l3.8-14.9V323.5z"/>
	<path fill="#EF9354" d="M757.3,284.5h6.8l4.9,41.8l5.9-27.6h7.3l5.9,27.7l4.9-41.9h6.8l-7.7,51.5h-6.6l-7-30.6l-7,30.6H765
		L757.3,284.5z"/>
	<path fill="#EF9354" d="M821,296.4c5.4,0,9.5,1.7,12.3,5.2c2.8,3.5,4.3,8.5,4.3,15.1c0,6.6-1.4,11.6-4.2,15.1
		c-2.8,3.5-6.9,5.2-12.3,5.2c-5.4,0-9.4-1.7-12.3-5.2c-2.8-3.5-4.2-8.5-4.2-15.1c0-6.6,1.4-11.6,4.2-15.1
		C811.6,298.1,815.7,296.4,821,296.4z M821,301.8c-3.2,0-5.7,1.3-7.3,3.8c-1.7,2.5-2.5,6.2-2.5,11.1c0,4.9,0.8,8.6,2.5,11.1
		c1.7,2.5,4.1,3.8,7.3,3.8c3.2,0,5.7-1.3,7.3-3.8c1.7-2.5,2.5-6.2,2.5-11.1c0-4.9-0.8-8.6-2.5-11.1C826.7,303,824.3,301.8,821,301.8
		z"/>
	<path fill="#EF9354" d="M882.1,305.3c-1.4-1.1-2.7-1.8-4.1-2.3c-1.4-0.5-2.9-0.7-4.6-0.7c-4,0-7,1.2-9.1,3.7
		c-2.1,2.5-3.1,6.1-3.1,10.8v19.2h-6.4v-38.6h6.4v7.6c1.1-2.7,2.7-4.8,4.9-6.3c2.2-1.5,4.8-2.2,7.8-2.2c1.6,0,3,0.2,4.4,0.6
		c1.4,0.4,2.7,1,3.9,1.8V305.3z"/>
	<path fill="#EF9354" d="M909.6,322c0,2.9,0.5,5,1.6,6.4c1,1.4,2.6,2.2,4.6,2.2h7.4v5.3h-8c-3.8,0-6.7-1.2-8.8-3.6
		c-2.1-2.4-3.1-5.9-3.1-10.3V287h-10.2v-5h16.5V322z"/>
</g>
<text transform="matrix(1 0 0 1 1356.2545 411.9271)" fill="#3B80E2" font-family="'MesloLGM-Regular'" font-size="70.6074">Print</text>
<text transform="matrix(1 0 0 1 1568.7028 411.9271)" fill="#939598" font-family="'MesloLGM-Regular'" font-size="70.6074">(</text>
<text transform="matrix(1 0 0 1 1611.1959 411.9271)" fill="#E27A34" font-family="'MesloLGM-Regular'" font-size="70.6074">”Hello, Worl</text>
</svg>
